<?xml version="1.0" encoding="UTF-8" standalone="no"?>
<!-- Created with Inkscape (http://www.inkscape.org/) -->

<svg
   width="7.9481912mm"
   height="8.085701mm"
   viewBox="0 0 7.9481912 8.085701"
   version="1.1"
   id="svg5"
   inkscape:version="1.3.2 (091e20e, 2023-11-25, custom)"
   sodipodi:docname="icons.svg"
   xml:space="preserve"
   xmlns:inkscape="http://www.inkscape.org/namespaces/inkscape"
   xmlns:sodipodi="http://sodipodi.sourceforge.net/DTD/sodipodi-0.dtd"
   xmlns="http://www.w3.org/2000/svg"
   xmlns:svg="http://www.w3.org/2000/svg"><sodipodi:namedview
     id="namedview7"
     pagecolor="#ffffff"
     bordercolor="#111111"
     borderopacity="1"
     inkscape:showpageshadow="0"
     inkscape:pageopacity="0"
     inkscape:pagecheckerboard="1"
     inkscape:deskcolor="#d1d1d1"
     inkscape:document-units="mm"
     showgrid="false"
     inkscape:zoom="0.79375"
     inkscape:cx="391.81102"
     inkscape:cy="2016.378"
     inkscape:window-width="1920"
     inkscape:window-height="1129"
     inkscape:window-x="-8"
     inkscape:window-y="-8"
     inkscape:window-maximized="1"
     inkscape:current-layer="layer2" /><defs
     id="defs2" /><g
     inkscape:groupmode="layer"
     id="layer2"
     inkscape:label="icons"
     style="display:inline"
     transform="translate(-98.166113,-417.56452)"><g
       id="g1284-1-0"
       style="display:inline;fill:#ffffff;fill-opacity:1;stroke:#3c9fff;stroke-opacity:1"
       transform="matrix(1.0338293,0,0,1.0338293,101.57298,426.27744)"
       inkscape:label="gear_white"><path
         id="path1284-77-42-1-86-6"
         style="display:inline;fill:#ffffff;fill-opacity:1;fill-rule:evenodd;stroke:#3c9fff;stroke-width:0;stroke-linecap:round;stroke-linejoin:round;stroke-dasharray:none;stroke-opacity:1"
         d="m 4.3927212,-4.8462594 -0.363189,-0.481563 -0.835874,-8.53e-4 -0.298776,-0.411453 -7.79e-4,0.901097 -6.03e-4,0.697808 -7.79e-4,0.901095 0.299485,-0.410842 0.835874,8.5e-4 0.364022,-0.480822 2.5e-5,-0.02094 5.82e-4,-0.673442 z"
         sodipodi:nodetypes="ccccccccccccc" /><path
         id="path1284-77-42-1-5-8-71"
         style="display:inline;fill:#ffffff;fill-opacity:1;fill-rule:evenodd;stroke:#3c9fff;stroke-width:0;stroke-linecap:round;stroke-linejoin:round;stroke-dasharray:none;stroke-opacity:1"
         d="m 3.1396482,-1.5930154 0.160954,-0.581294 -0.508172,-0.663663 0.144545,-0.487512 -0.715362,0.547935 -0.553976,0.42432 -0.71536102,0.547935 0.50825802,-0.01251 0.508174,0.663661 0.603063,-0.0039 0.01663,-0.01273 0.534632,-0.409504 z"
         sodipodi:nodetypes="ccccccccccccc" /><path
         id="path1284-77-42-1-4-2-0"
         style="display:inline;fill:#ffffff;fill-opacity:1;fill-rule:evenodd;stroke:#3c9fff;stroke-width:0;stroke-linecap:round;stroke-linejoin:round;stroke-dasharray:none;stroke-opacity:1"
         d="m -0.20414682,-0.60669539 0.559155,-0.226176 0.217163,-0.80717201 0.47476302,-0.182104 -0.87019102,-0.233973 -0.673875,-0.181189 -0.87018998,-0.233972 0.319331,0.395613 -0.217161,0.807173 0.37022198,0.47606301 0.02022,0.0054 0.650345,0.174862 z"
         sodipodi:nodetypes="ccccccccccccc" /><path
         id="path1284-77-42-1-0-8-9"
         style="display:inline;fill:#ffffff;fill-opacity:1;fill-rule:evenodd;stroke:#3c9fff;stroke-width:0;stroke-linecap:round;stroke-linejoin:round;stroke-dasharray:none;stroke-opacity:1"
         d="m -3.0222198,-2.6590734 0.51983,0.30592 0.772573,-0.319088 0.433489,0.265797 -0.344115,-0.832803 -0.266482,-0.644921 -0.344116,-0.832802 -0.119464,0.494177 -0.772573,0.31909 -0.152309,0.583526 0.008,0.01935 0.257178,0.622403 z"
         sodipodi:nodetypes="ccccccccccccc" /><path
         id="path1284-77-42-1-8-2-4"
         style="display:inline;fill:#ffffff;fill-opacity:1;fill-rule:evenodd;stroke:#3c9fff;stroke-width:0;stroke-linecap:round;stroke-linejoin:round;stroke-dasharray:none;stroke-opacity:1"
         d="m -3.1094938,-6.1442094 0.07375,0.598641 0.723463,0.418675 0.05302,0.505717 0.451223,-0.779983 0.349426,-0.604018 0.451222,-0.779982 -0.464783,0.206058 -0.723463,-0.418674 -0.555663,0.234393 -0.01049,0.01812 -0.337225,0.582928 z"
         sodipodi:nodetypes="ccccccccccccc" /><path
         id="path1284-77-42-1-49-0-43"
         style="display:inline;fill:#ffffff;fill-opacity:1;fill-rule:evenodd;stroke:#3c9fff;stroke-width:0;stroke-linecap:round;stroke-linejoin:round;stroke-dasharray:none;stroke-opacity:1"
         d="m -0.39767882,-8.3350644 -0.430038,0.422939 0.108259,0.828835 -0.36893498,0.349925 0.89348898,-0.116845 0.691917,-0.09048 0.89348802,-0.116845 -0.44641802,-0.243296 -0.108261,-0.828835 -0.524223,-0.298147 -0.02076,0.0027 -0.667757,0.08732 z"
         sodipodi:nodetypes="ccccccccccccc" /><path
         id="path1284-77-42-1-7-3-3"
         style="display:inline;fill:#ffffff;fill-opacity:1;fill-rule:evenodd;stroke:#3c9fff;stroke-width:0;stroke-linecap:round;stroke-linejoin:round;stroke-dasharray:none;stroke-opacity:1"
         d="m 2.9912932,-7.5173454 -0.597331,-0.0837 -0.591655,0.59045 -0.502208,-0.07968 0.636621,0.637722 0.492998,0.493852 0.636621,0.63772 -0.07874,-0.502276 0.591653,-0.590452 -0.08259,-0.597394 -0.01479,-0.01482 -0.475784,-0.476607 z"
         sodipodi:nodetypes="ccccccccccccc" /><ellipse
         style="display:inline;fill:none;fill-opacity:1;fill-rule:evenodd;stroke:#ffffff;stroke-width:1.78284;stroke-linecap:round;stroke-linejoin:round;stroke-dasharray:none;stroke-opacity:1"
         id="path1284-6-8-99"
         cx="0.48061222"
         cy="-4.5141954"
         rx="1.8547761"
         ry="1.8547782" /></g></g></svg>
